<svg width="86" height="16" viewBox="0 0 86 16" fill="none" xmlns="http://www.w3.org/2000/svg">
<path d="M71.0728 5.50173C69.8852 5.19115 68.6742 5.19115 67.4866 5.50173C65.7168 5.94542 64.5291 7.03245 64.1332 8.71847C63.9236 9.65021 63.8771 10.6263 63.9469 11.5803C64.0634 13.7543 65.4839 15.3072 67.6729 15.7953H67.766C67.8592 15.7953 67.9291 15.8618 68.0222 15.8618H68.1154C68.2318 15.8618 68.3482 15.9284 68.488 15.9284C68.9071 15.9949 69.466 15.9949 69.9318 15.9284H70.0016C72.2605 15.8175 73.9837 14.4642 74.4961 12.3567C74.7755 11.2031 74.7755 10.0495 74.4961 8.91813C74.0769 7.12119 72.9125 5.9676 71.0496 5.47955L71.0728 5.50173ZM71.2126 11.8021C71.2126 11.8687 71.2126 11.9352 71.1427 12.0018C70.9098 12.9557 70.1879 13.4881 69.2099 13.4437C68.1619 13.3772 67.44 12.8226 67.3236 11.8021C67.2537 11.07 67.2304 10.3379 67.3236 9.60584C67.4167 8.45225 68.1852 7.80891 69.3263 7.83109C70.2578 7.83109 70.9331 8.34133 71.166 9.20652C71.3989 10.0717 71.2358 11.6024 71.2126 11.8021ZM75.7769 0.399318V15.7731H79.2001V11.07L82.3672 15.7731H86L82.5768 10.6707L86 5.56828H82.3672L79.2001 10.2714V-1.35403e-06L75.7769 0.399318ZM39.3322 11.0035C39.3322 10.2936 39.3322 9.58366 39.2158 8.87376C38.9131 6.94371 37.7021 5.72357 35.6994 5.41299C34.9542 5.27989 34.1392 5.30207 33.3707 5.34644C31.2516 5.5461 29.668 6.78842 29.3187 8.6741C29.1091 9.82769 29.0858 11.0256 29.2488 12.1792C29.4817 13.9096 30.3666 14.9966 31.9036 15.5291C32.6022 15.7287 36.0255 16.5717 39.0295 15.1298L38.9131 14.7083C38.7734 14.1536 38.6103 13.599 38.4473 13.0222V12.9557C38.4473 12.9557 38.3775 12.9557 38.261 13.0222C38.1213 13.0888 38.0049 13.0888 37.8652 13.1332H37.7953C37.3295 13.2663 36.6775 13.3994 36.0022 13.4881C35.42 13.5547 34.8378 13.5547 34.2556 13.4881C33.3008 13.3328 32.5789 12.8448 32.6022 11.6912H39.309V11.5803L39.3322 11.0035ZM36.235 9.60584H32.5324C32.5324 8.91813 32.6488 8.2526 33.3008 7.85328C33.9995 7.43177 34.7679 7.40959 35.4666 7.78672C36.2118 8.16386 36.2583 8.85157 36.235 9.60584ZM28.7831 15.041C28.6434 14.5308 28.4571 14.0205 28.2941 13.5103L28.1311 12.9557C28.1311 12.9557 24.1256 14.797 23.4969 11.314C23.427 10.7372 23.427 10.1383 23.5667 9.58366C23.7298 8.51881 24.4051 7.94201 25.4996 7.85328C25.8722 7.78672 26.2448 7.85328 26.6174 7.91983C27.1064 8.00857 27.5955 8.14167 28.1311 8.27478C28.3174 7.72017 28.5037 7.18775 28.69 6.63314C28.7598 6.5444 28.7598 6.47784 28.7598 6.41129L28.853 6.07853C28.853 6.01197 28.7831 5.98979 28.69 5.94542C28.5968 5.87886 28.4338 5.81231 28.2009 5.72357C28.1078 5.65702 28.0146 5.65702 27.8982 5.63484C27.805 5.56828 27.7585 5.56828 27.7585 5.56828C26.7105 5.27989 25.6393 5.2577 24.5215 5.36863C22.2161 5.61265 20.6325 6.89935 20.2134 9.05123C19.9805 10.1826 20.0038 11.3362 20.2832 12.4454C20.6791 14.1315 21.7503 15.2407 23.5202 15.7287C24.6613 16.0393 25.8256 16.0615 27.0133 15.884C27.5023 15.8175 28.2009 15.5734 28.7132 15.396L28.8995 15.3294L28.8064 15.041H28.7831ZM15.8354 6.76624C15.7655 6.69969 15.7422 6.6775 15.7189 6.65532L15.6258 6.56658C14.8573 5.81231 14.5546 5.63484 13.9491 5.45736C11.6204 4.81401 9.36149 5.9676 8.63959 8.18604C8.19713 9.56147 8.19713 10.9591 8.45329 12.3567C9.01219 15.3516 11.3409 16.3721 13.8559 15.8618C14.6244 15.7066 15.1833 15.2629 15.7189 14.6195C15.7189 14.6195 15.7888 14.553 15.8354 14.4642V15.7731H19.0257V5.43518H15.8587L15.8354 6.76624ZM15.5559 11.9574C15.4395 12.9113 14.6477 13.4881 13.6696 13.4437C12.6916 13.3772 12.0395 12.9113 11.8299 12.0018C11.5738 10.7372 11.8998 9.20652 11.8998 9.0956C12.156 8.23041 12.808 7.80891 13.7628 7.83109C14.7176 7.83109 15.4395 8.3857 15.5326 9.31744C15.6491 10.1826 15.6491 11.0922 15.5559 11.9574ZM8.01083 5.45736H5.56566V3.90445C5.75196 2.44028 8.29028 2.72868 8.29028 2.72868V0.221843C8.19713 0.221843 3.23693 -0.90956 2.25887 2.68431C2.09586 3.128 2.11914 5.19115 2.11914 5.45736H0V8.20822H2.23558V15.7066H5.51909V8.20822H8.03412L8.31357 5.45736H8.01083ZM59.4059 5.50173C58.2183 5.19115 57.0073 5.19115 55.8197 5.50173C54.0498 5.94542 52.8622 7.03245 52.4663 8.71847C52.2567 9.65021 52.2101 10.6263 52.28 11.5803C52.4197 13.7543 53.817 15.3072 56.0292 15.7953H56.1224C56.2155 15.7953 56.2854 15.8618 56.3786 15.8618H56.4717C56.5881 15.8618 56.7046 15.9284 56.8443 15.9284C57.2635 15.9949 57.8224 15.9949 58.2881 15.9284H58.358C60.6168 15.8175 62.3401 14.4642 62.8524 12.3567C63.1319 11.2031 63.1319 10.0495 62.8524 8.91813C62.4333 7.12119 61.2689 5.9676 59.4059 5.47955V5.50173ZM59.5456 11.8021C59.5456 11.8687 59.5456 11.9352 59.4758 12.0018C59.2429 12.9557 58.521 13.4881 57.5429 13.4437C56.495 13.3772 55.7731 12.8226 55.6567 11.8021C55.5868 11.07 55.5868 10.3379 55.6567 9.60584C55.7498 8.45225 56.5183 7.80891 57.6594 7.83109C58.5909 7.83109 59.2662 8.34133 59.4991 9.20652C59.7319 10.0717 59.5689 11.6024 59.5456 11.8021ZM47.2732 5.30207C45.9924 5.16896 44.8513 5.5461 43.9198 6.63314V-1.35403e-06L40.4966 0.399318V15.7731H43.9198V14.8635C44.3856 15.1741 44.8281 15.5513 45.3637 15.7287C47.3664 16.4165 49.9745 15.8618 50.906 13.3106C51.4882 11.669 51.4882 10.0052 51.0458 8.36352C50.5334 6.52221 49.2526 5.50173 47.2732 5.30207ZM47.7855 11.9796C47.6225 13.0001 46.7842 13.5325 45.7828 13.4437C45.5267 13.4437 45.2938 13.3772 45.1075 13.2885C44.2924 12.8448 44.0596 12.1127 43.9897 11.6246C43.9198 10.9147 43.8733 9.40619 44.2459 8.69628C44.5486 8.14167 45.1075 7.85328 45.8294 7.83109C46.854 7.76454 47.6458 8.27478 47.7855 9.27308C47.902 10.1605 47.9253 11.0922 47.7855 11.9796Z" fill="#3B5997"/>
</svg>
