<svg width="90" height="20" viewBox="0 0 90 20" fill="none" xmlns="http://www.w3.org/2000/svg">
<path d="M6.99394 0H7.49893C9.25211 0.041123 10.9767 0.801898 12.2154 2.14868C11.758 2.65243 11.2911 3.13563 10.8433 3.63938C10.1478 2.96086 9.30928 2.43654 8.39458 2.25148C7.04158 1.94306 5.58377 2.22064 4.44992 3.05338C3.21126 3.92725 2.37279 5.40767 2.19175 6.99091C1.99166 8.55358 2.40137 10.1985 3.34466 11.4116C4.24983 12.5939 5.63141 13.3341 7.06064 13.3855C8.39458 13.4678 9.78569 13.0257 10.7576 12.0182C11.5198 11.3088 11.8724 10.2293 11.9867 9.18071C10.405 9.18071 8.82334 9.19099 7.24167 9.18071V7.06287H13.9018C14.2449 9.33492 13.7494 11.8948 12.1487 13.5192C11.0815 14.6706 9.60465 15.3492 8.0992 15.4828C6.6414 15.637 5.13595 15.3389 3.84012 14.5781C2.28703 13.6837 1.04837 12.1724 0.438572 10.3938C-0.133117 8.7592 -0.142645 6.90866 0.390931 5.26374C0.876867 3.76275 1.81063 2.43654 3.01117 1.51127C4.16408 0.596283 5.56472 0.0925267 6.99394 0Z" fill="#4285F4"/>
<path d="M45.2041 0.534912H47.2431V15.2158C46.5666 15.2158 45.8806 15.2261 45.2041 15.2055C45.2136 10.3222 45.2041 5.42855 45.2041 0.534912Z" fill="#34A853"/>
<path d="M18.4397 5.6244C19.6975 5.36738 21.06 5.65524 22.0986 6.46742C23.0418 7.18707 23.6993 8.31796 23.8994 9.55165C24.1566 10.9807 23.8327 12.5433 22.9751 13.6742C22.0509 14.9388 20.5359 15.6173 19.0591 15.5145C17.7061 15.4322 16.3912 14.7023 15.5908 13.5097C14.6857 12.1938 14.4665 10.3844 14.962 8.84228C15.4574 7.18707 16.8581 5.92254 18.4397 5.6244ZM18.7256 7.57774C18.2111 7.72167 17.7347 8.04038 17.3916 8.49273C16.4674 9.6853 16.5246 11.6284 17.5441 12.7387C18.1253 13.3761 19.0019 13.6742 19.8118 13.4995C20.5645 13.3555 21.222 12.8106 21.584 12.091C22.2129 10.8676 22.0319 9.18154 21.0695 8.22543C20.4502 7.60859 19.545 7.35157 18.7256 7.57774Z" fill="#EA4335"/>
<path d="M28.5344 5.62418C29.9732 5.32604 31.5453 5.75783 32.622 6.84759C34.3752 8.54391 34.5657 11.7207 33.0698 13.674C32.1646 14.9077 30.6973 15.5862 29.249 15.5143C27.8674 15.4731 26.5049 14.7329 25.6855 13.5095C24.7613 12.1627 24.5612 10.3122 25.0852 8.73925C25.6093 7.13545 26.9813 5.91204 28.5344 5.62418ZM28.8203 7.57752C28.3057 7.72145 27.8293 8.04016 27.4863 8.48223C26.5716 9.65423 26.6097 11.5665 27.5911 12.6871C28.1723 13.3553 29.0775 13.6843 29.916 13.4992C30.6592 13.345 31.3262 12.8104 31.6882 12.0908C32.3076 10.8571 32.1265 9.17104 31.1547 8.21493C30.5353 7.59808 29.6301 7.35135 28.8203 7.57752Z" fill="#FBBC04"/>
<path d="M37.1005 6.21883C38.1962 5.47862 39.654 5.273 40.8355 5.91041C41.2071 6.08518 41.512 6.38332 41.8074 6.68147C41.8169 6.40389 41.8074 6.11602 41.8169 5.82816C42.4553 5.83844 43.0937 5.82816 43.7416 5.83844V14.9061C43.7321 16.2734 43.4081 17.723 42.4934 18.7202C41.4929 19.8203 39.9589 20.1595 38.5773 19.9334C37.1005 19.6969 35.8142 18.5352 35.2425 17.065C35.8142 16.7669 36.4144 16.5304 37.0052 16.2528C37.3387 17.0959 38.0152 17.8155 38.8632 17.98C39.7112 18.1445 40.6926 17.9183 41.2452 17.1576C41.836 16.3762 41.836 15.307 41.8074 14.3509C41.3691 14.8135 40.8641 15.2248 40.2543 15.379C38.9299 15.7799 37.4721 15.2865 36.4526 14.3201C35.4235 13.3537 34.8137 11.863 34.8709 10.3825C34.8995 8.70677 35.7761 7.0927 37.1005 6.21883ZM39.0728 7.53477C38.4916 7.63758 37.9485 7.98712 37.5769 8.47032C36.6812 9.62176 36.6812 11.462 37.5864 12.5929C38.1009 13.2611 38.9299 13.6313 39.7302 13.5387C40.483 13.4565 41.1785 12.9424 41.5501 12.2331C42.179 11.0302 42.0742 9.39558 41.2262 8.34695C40.7021 7.69926 39.8636 7.38056 39.0728 7.53477Z" fill="#4285F4"/>
<path d="M49.6869 6.74371C50.8302 5.59226 52.5929 5.2016 54.0603 5.80816C55.4514 6.3736 56.3375 7.80262 56.7853 9.27277C54.7177 10.198 52.6596 11.113 50.592 12.0383C50.8779 12.6243 51.3162 13.1589 51.9069 13.3748C52.7359 13.6935 53.7268 13.5804 54.4224 12.9841C54.6987 12.7579 54.9178 12.4598 55.1274 12.1719C55.6515 12.5523 56.1755 12.9224 56.6996 13.3028C55.9564 14.5057 54.7082 15.3487 53.3647 15.4823C51.8783 15.6777 50.2967 15.0608 49.3343 13.8066C47.7526 11.8327 47.9051 8.52227 49.6869 6.74371ZM50.7064 8.64564C50.3824 9.1494 50.249 9.76624 50.2585 10.3728C51.6401 9.75596 53.0217 9.13912 54.4033 8.51199C54.1746 7.93627 53.622 7.58673 53.0598 7.4942C52.1546 7.31943 51.2114 7.84375 50.7064 8.64564Z" fill="#EA4335"/>
<path d="M69.338 11.9241H63.8827L62.6575 15.6277H60.8867L65.8591 1.43694H67.3616L72.3429 15.6277H70.5811L69.338 11.9241ZM64.4014 10.3841H68.8282L66.6103 3.74684L64.4014 10.3841Z" fill="#5F6368"/>
<path d="M72.7013 10.2672C72.7013 8.64928 73.0531 7.34976 73.7566 6.36862C74.4602 5.38098 75.3813 4.88717 76.5201 4.88717C77.6529 4.88717 78.5502 5.30951 79.212 6.1542V0.657227H80.8665V15.6277H79.3461L79.2656 14.4971C78.6038 15.3808 77.6827 15.8226 76.5022 15.8226C75.3813 15.8226 74.4661 15.3223 73.7566 14.3217C73.0531 13.3211 72.7013 12.015 72.7013 10.4036V10.2672ZM74.3558 10.4719C74.3558 11.6674 74.5824 12.6031 75.0355 13.2788C75.4886 13.9546 76.1147 14.2924 76.9136 14.2924C77.9629 14.2924 78.729 13.7791 79.212 12.7525V7.90855C78.7171 6.91442 77.9569 6.41735 76.9315 6.41735C76.1206 6.41735 75.4886 6.75848 75.0355 7.44072C74.5824 8.12297 74.3558 9.13335 74.3558 10.4719Z" fill="#5F6368"/>
<path d="M88.3437 12.8305C88.3437 12.3432 88.1737 11.9663 87.8339 11.6999C87.5 11.427 86.9127 11.1931 86.0721 10.9982C85.2374 10.8032 84.5726 10.5693 84.0778 10.2964C83.5889 10.0235 83.2252 9.69864 82.9867 9.32178C82.7542 8.94492 82.6379 8.49659 82.6379 7.97678C82.6379 7.1126 82.9718 6.38162 83.6395 5.78384C84.3133 5.18606 85.1718 4.88717 86.2152 4.88717C87.3122 4.88717 88.2006 5.1958 88.8802 5.81308C89.5659 6.43035 89.9087 7.21981 89.9087 8.18145H88.2453C88.2453 7.68763 88.0515 7.26204 87.664 6.90467C87.2824 6.5473 86.7995 6.36862 86.2152 6.36862C85.613 6.36862 85.142 6.51157 84.8022 6.79746C84.4623 7.08336 84.2924 7.45697 84.2924 7.9183C84.2924 8.35364 84.4504 8.68177 84.7664 8.90269C85.0824 9.1236 85.6518 9.33478 86.4745 9.5362C87.3033 9.73763 87.974 9.97804 88.4867 10.2574C88.9995 10.5368 89.3781 10.8747 89.6225 11.2711C89.8729 11.6609 89.9981 12.1385 89.9981 12.7038C89.9981 13.6459 89.6523 14.4029 88.9607 14.9747C88.2691 15.54 87.3718 15.8226 86.2688 15.8226C85.4938 15.8226 84.8081 15.6732 84.2119 15.3743C83.6157 15.0754 83.1477 14.6596 82.8078 14.1268C82.474 13.5875 82.307 13.0059 82.307 12.3822H83.9615C83.9913 12.9864 84.2119 13.4673 84.6233 13.8246C85.0406 14.1755 85.5892 14.3509 86.2688 14.3509C86.8949 14.3509 87.3957 14.2145 87.7713 13.9416C88.1529 13.6622 88.3437 13.2918 88.3437 12.8305Z" fill="#5F6368"/>
</svg>
