<svg width="76" height="20" viewBox="0 0 76 20" fill="none" xmlns="http://www.w3.org/2000/svg">
<path fill-rule="evenodd" clip-rule="evenodd" d="M0 16.7527H8.34807V14.0298H3.02107V3.64111H0V16.7527Z" fill="black"/>
<path fill-rule="evenodd" clip-rule="evenodd" d="M12.5742 16.7526V7.72177H9.5529V16.7526H12.5742ZM11.0636 6.48872C12.1172 6.48872 12.773 5.79524 12.773 4.92805C12.7533 4.04215 12.1172 3.36816 11.0836 3.36816C10.05 3.36816 9.37427 4.04215 9.37427 4.92805C9.37427 5.79524 10.0299 6.48872 11.0439 6.48872H11.0635H11.0636Z" fill="black"/>
<path fill-rule="evenodd" clip-rule="evenodd" d="M13.9778 16.7528H16.9992V11.7094C16.9992 11.4395 17.0188 11.1699 17.0987 10.9769C17.317 10.4379 17.8141 9.87937 18.6488 9.87937C19.7421 9.87937 20.1795 10.7078 20.1795 11.9211V16.7528H23.2006V11.5745C23.2006 8.80053 21.7099 7.50977 19.7221 7.50977C18.0923 7.50977 17.3766 8.41489 16.979 9.03143H16.9992V7.72194H13.9778C14.0175 8.56936 13.9778 16.7528 13.9778 16.7528H13.9778Z" fill="black"/>
<path fill-rule="evenodd" clip-rule="evenodd" d="M27.4621 3.64111H24.4407V16.7527H27.4621V13.8249L28.2172 12.8804L30.5825 16.7527H34.2996L30.3243 11.1468L33.8027 7.33278H30.1654C30.1654 7.33278 27.6808 10.7452 27.4621 11.1498V3.64111Z" fill="black"/>
<path fill-rule="evenodd" clip-rule="evenodd" d="M42.3789 12.9854C42.4185 12.7535 42.4782 12.3085 42.4782 11.8056C42.4782 9.47095 41.2854 7.10107 38.1452 7.10107C34.7859 7.10107 33.2356 9.74059 33.2356 12.1345C33.2356 15.0956 35.1238 16.9449 38.4232 16.9449C39.7353 16.9449 40.9474 16.7524 41.9414 16.3478L41.5438 14.3654C40.7288 14.634 39.894 14.7682 38.8607 14.7682C37.4495 14.7682 36.2171 14.1928 36.1176 12.9662L42.3789 12.9849V12.9854ZM36.098 10.9547C36.1772 10.1839 36.6942 9.04712 37.9863 9.04712C39.3573 9.04712 39.6757 10.2612 39.6757 10.9547H36.098Z" fill="black"/>
<path fill-rule="evenodd" clip-rule="evenodd" d="M49.9366 3.64136V8.18015H49.897C49.4596 7.54493 48.5453 7.12108 47.3329 7.12108C45.0072 7.12108 42.9601 8.97039 42.9799 12.1294C42.9799 15.0579 44.8285 16.9649 47.1341 16.9649C48.3863 16.9649 49.5789 16.4253 50.175 15.385H50.235L50.354 16.753H53.0377C52.9979 16.1172 52.9577 15.0191 52.9577 13.9405V3.64136H49.9366ZM49.9366 12.5728C49.9366 12.8037 49.9168 13.0351 49.877 13.2275C49.6982 14.056 48.9825 14.6337 48.1081 14.6337C46.8559 14.6337 46.0409 13.6321 46.0409 12.0525C46.0409 10.5693 46.7368 9.37499 48.1279 9.37499C49.062 9.37499 49.718 10.0105 49.897 10.8002C49.9366 10.9739 49.9366 11.1666 49.9366 11.3397V12.5728Z" fill="black"/>
<path fill-rule="evenodd" clip-rule="evenodd" d="M55.9961 1.43267C55.9961 0.641642 56.658 0 57.4743 0H74.5217C75.338 0 75.9999 0.641642 75.9999 1.43267V18.5673C75.9999 19.3586 75.338 20 74.5217 20H57.4743C56.658 20 55.9961 19.3586 55.9961 18.5673V1.43267ZM62.06 16.7421V7.71094H59.0386V16.7421H62.06ZM60.5493 6.47792C61.6027 6.47792 62.2585 5.78442 62.2585 4.91774C62.239 4.03158 61.6027 3.35734 60.5691 3.35734C59.5357 3.35734 58.8598 4.03158 58.8598 4.91774C58.8598 5.78442 59.5157 6.47792 60.5295 6.47792H60.549H60.5493ZM66.7531 16.7421H63.7317C63.7317 16.7421 63.7713 8.55836 63.7317 7.71094H66.7531V8.98959C67.1546 8.3742 67.8733 7.49903 69.4758 7.49903C71.4639 7.49903 72.9542 8.78979 72.9542 11.5638V16.7421H69.9334V11.9106C69.9334 10.6966 69.4959 9.86838 68.4026 9.86838C67.5681 9.86838 67.0709 10.4269 66.8523 10.9662C66.7726 11.1591 66.7531 11.4288 66.7531 11.6987V16.7421ZM66.7531 8.98959V9.0207H66.733C66.7396 9.01041 66.7462 9.00003 66.7531 8.98959Z" fill="#00669A"/>
</svg>
