<svg width="70" height="20" viewBox="0 0 70 20" fill="none" xmlns="http://www.w3.org/2000/svg">
<path d="M35.9269 11.8114V6.35901H33.9709V5.12451H39.2725V6.35901H37.3166V11.8114H35.9269Z" fill="#333333"/>
<path d="M43.7508 11.8114L43.339 10.6797H40.4566L40.0963 11.8114H38.4492L41.0228 5.12451H42.8243L45.3978 11.8114H43.7508ZM41.9493 6.56475L40.9198 9.44524H42.9787L41.9493 6.56475Z" fill="#333333"/>
<path d="M52.0374 8.46827C52.0374 6.35934 53.633 5.02197 55.5889 5.02197C56.9786 5.02197 57.8536 5.74209 58.3683 6.51365L57.1845 7.1309C56.8757 6.66796 56.3095 6.25647 55.5889 6.25647C54.3536 6.25647 53.4785 7.18234 53.4785 8.46827C53.4785 9.7542 54.3536 10.6801 55.5889 10.6801C56.1551 10.6801 56.7212 10.4229 57.0301 10.1657V9.3427H55.28V8.10821H58.4713V10.6801C57.8021 11.4516 56.8242 11.966 55.6403 11.966C53.633 11.966 52.0374 10.5772 52.0374 8.46827Z" fill="#333333"/>
<path d="M66.6039 11.8114V6.35901H64.6479V5.12451H70.001V6.35901H68.0451V11.8114H66.6039Z" fill="#333333"/>
<path d="M51.2651 7.28488C51.2651 6.05038 50.3901 5.12451 49.0003 5.12451H45.8606V11.8114H47.3533V9.44524H48.5371L49.9783 11.8114H51.6254L49.9783 9.23949C50.6989 9.08518 51.2651 8.46793 51.2651 7.28488ZM48.7945 8.15931H47.3533V6.35901H48.8459C49.4121 6.35901 49.8239 6.71907 49.8239 7.28488C49.8239 7.85069 49.4121 8.15931 48.7945 8.15931Z" fill="#333333"/>
<path d="M59.3462 11.8114H64.0815V10.5769H60.7874V9.03374H63.7212V7.79925H60.7874V6.35901H64.0815V5.12451H59.3462V11.8114Z" fill="#333333"/>
<path d="M33.6108 2.9645H31.552C31.1402 2.9645 31.0372 2.75875 31.0372 2.39869V0.341197C31.0372 -0.224613 30.5225 0.0840109 30.5225 0.0840109L28.824 1.78144C28.3093 2.34725 28.3607 2.9645 28.3607 2.9645V4.19899L25.6842 6.87373C25.4783 6.82229 25.2725 6.77085 25.0666 6.77085C23.8827 6.77085 22.9048 7.74816 22.9048 8.93122C22.9048 10.1143 23.8827 11.0916 25.0666 11.0916C26.2504 11.0916 27.2284 10.1143 27.2284 8.93122C27.2284 8.72547 27.2284 8.57116 27.1769 8.36541L29.9049 5.63923H31.0887C31.0887 5.63923 31.7064 5.69067 32.2726 5.1763L33.9711 3.47887C33.9196 3.47887 34.177 2.9645 33.6108 2.9645Z" fill="#FA2C38"/>
<path d="M30.6254 6.87359C30.0592 6.97647 29.6989 7.54228 29.8018 8.10809C29.8533 8.41671 29.9048 8.72534 29.9048 9.03396C29.9048 11.7601 27.743 13.9719 25.015 13.9719C23.8827 13.9719 22.8532 13.6119 21.9782 12.8918C21.1547 12.2231 20.537 11.2458 20.2797 10.1656C20.1767 9.70264 19.8164 9.39402 19.4047 9.34258C19.0958 9.29115 18.8385 9.34258 18.787 9.34258C17.912 9.49689 17.1914 9.75408 16.5223 10.0627C16.5223 10.0113 16.5223 9.95983 16.5223 9.95983C16.5737 9.18827 16.5737 8.87965 16.6252 8.15953C16.6252 8.05665 16.6252 8.00521 16.6767 7.90234C16.8826 6.82216 17.1914 6.20491 17.1399 5.74198C17.1399 5.53623 17.0885 5.38192 16.9855 5.17617C16.8826 4.97042 16.7282 4.86754 16.5737 4.76467C16.5223 4.71323 16.4708 4.66179 16.3679 4.66179C16.3164 4.66179 16.3164 4.61036 16.2649 4.61036C15.8531 4.45604 15.4414 4.55892 15.184 4.91898C14.9267 5.2276 14.8752 5.58766 14.7722 5.99916C14.6178 6.61641 14.4634 7.54228 14.309 8.10809C14.1546 8.57102 13.8972 9.13683 13.5369 9.39402C13.1766 9.65121 12.8163 9.54833 12.6619 9.03396C12.5075 8.41671 12.559 7.74803 12.6105 7.13078C12.6619 6.71928 12.9708 6.66785 13.0737 5.94772C13.1766 5.12473 12.7134 4.61036 11.9928 4.50748C11.4781 4.45604 11.0663 4.66179 10.809 5.17617C10.5516 5.69054 10.4487 6.25635 10.4487 6.82216C10.3972 7.28509 10.4487 7.79947 10.4487 8.2624C10.4487 8.31384 10.3972 8.31384 10.3972 8.36527C10.0369 9.03396 9.31629 9.70264 9.16188 9.59977C9.05894 9.54833 9.11041 9.34258 9.11041 9.23971C9.11041 8.46815 9.21335 7.02791 9.31629 5.99916C9.36777 5.38191 9.00747 4.86754 8.2354 4.86754C7.72069 4.86754 7.41186 5.17617 7.1545 5.48479C6.69126 5.99916 6.27949 6.61641 5.91919 7.07934C5.86772 7.13078 5.76478 7.28509 5.66184 7.23366C5.55889 7.18222 5.55889 7.02791 5.55889 6.92503C5.55889 6.41066 5.55889 6.51353 5.55889 5.99916C5.55889 5.89629 5.55889 5.6391 5.50742 5.43335C5.45595 4.86754 4.88977 4.61036 4.37506 4.66179C4.06623 4.71323 3.80887 4.91898 3.65446 5.17617C3.3971 5.58766 3.29416 5.84485 3.0368 6.25635C2.88239 6.56497 2.83092 6.66785 2.72798 6.82216C2.62503 6.97647 2.52209 7.07934 2.41915 7.07934C2.26473 7.07934 2.26473 6.92503 2.26473 6.92503C2.26473 6.66785 2.26473 6.15347 2.26473 6.0506C2.26473 5.74198 2.31621 5.07329 1.75002 4.97042C0.205885 5.02185 0 6.56497 0 7.33653C0 8.15953 0 8.72534 0 9.54833C0 10.1656 0 10.5256 0.0514712 11.1429C0.102942 11.863 0.669126 12.2231 1.28678 12.0173C1.59561 11.9144 1.80149 11.6573 1.95591 11.3486C2.11032 11.04 2.36768 10.3199 2.52209 9.95983C2.6765 9.54833 2.88239 9.0854 3.0368 8.77677C3.08827 8.6739 3.24269 8.57102 3.3971 8.57102C3.55152 8.57102 3.60299 8.6739 3.60299 8.77677C3.60299 9.13683 3.55152 9.49689 3.55152 9.85696C3.50004 10.5771 3.55152 11.0914 3.65446 11.2972C3.70593 11.4515 3.91181 11.7087 4.16917 11.8116C4.68388 12.0173 5.25007 11.8116 5.50742 11.2972C5.86772 10.5771 5.97066 9.95983 6.33096 9.18827C6.43391 8.98252 6.53685 8.6739 6.84567 8.6739C6.94862 8.6739 7.1545 8.72534 7.1545 8.87965C7.1545 9.03396 7.10303 10.3199 7.20597 10.9371C7.30892 11.4515 7.77216 12.0173 8.75011 11.9659C9.00747 11.9659 9.26482 11.8116 9.52218 11.6573C9.83101 11.5544 10.1913 11.1429 10.6545 10.4228C10.809 10.9371 11.1693 11.3486 11.3237 11.6058C11.9413 12.4288 12.8678 12.4288 13.5884 11.7601C13.9487 11.4515 14.1031 11.1429 14.2061 10.8343C14.2061 11.1429 14.1546 11.4515 14.1546 11.7601C11.9928 13.2004 10.8604 14.6406 10.7575 16.1323C10.6545 17.4697 11.3751 18.807 12.8163 19.6815C13.1766 19.8872 13.5369 20.0415 13.8458 19.9901C14.0516 19.9901 14.2575 19.9387 14.4634 19.8358C15.6987 19.2185 15.9046 15.9265 16.2134 12.9946V12.8403C16.5223 12.5831 16.9855 12.2231 17.5517 11.9659C17.6032 11.9144 17.8605 11.8116 17.9635 11.8116C18.2723 11.7601 18.4782 11.8116 18.6326 12.1202C18.6326 12.1716 18.7355 12.3259 18.7355 12.3259C19.1988 13.1489 19.765 13.9205 20.537 14.5377C21.7723 15.5151 23.3165 16.0809 24.8606 16.0809C28.6695 16.0809 31.8092 12.8918 31.8092 8.98252C31.8092 8.51959 31.7578 8.10809 31.7063 7.64515C31.7063 7.13078 31.1916 6.71928 30.6254 6.87359ZM13.7428 16.8524C13.6913 17.0067 13.5884 17.0067 13.434 16.9039C13.0737 16.5952 12.9708 16.1837 12.9708 15.8751C12.9708 15.6694 13.1252 15.1036 14.0002 14.2806C14.0516 14.8978 13.9487 16.2866 13.7428 16.8524Z" fill="#FA2C38"/>
<path d="M19.3016 7.07959C19.456 7.18247 19.6104 7.18247 19.8163 7.18247C20.1766 7.18247 20.5369 6.97672 20.7428 6.61666C21.5663 5.07354 23.2134 4.09623 25.0149 4.09623C25.3752 4.09623 25.684 4.14767 26.0443 4.19911C26.6105 4.30198 27.1767 3.94192 27.2796 3.37611C27.3826 2.8103 27.0223 2.24449 26.4561 2.14162C25.9929 2.03874 25.4781 1.9873 24.9634 1.9873C22.3899 1.9873 20.0737 3.42755 18.8384 5.69079C18.6325 6.20516 18.8384 6.82241 19.3016 7.07959Z" fill="#FA2C38"/>
</svg>
