<svg width="86" height="16" viewBox="0 0 86 16" fill="none" xmlns="http://www.w3.org/2000/svg">
<path d="M5.30259 14.6641C2.37368 14.6641 0 12.3092 0 9.40414L0.0169197 3.37006C0.0169197 2.97068 0.17685 2.58768 0.461534 2.30529C0.746216 2.0229 1.13233 1.86426 1.53493 1.86426C1.93753 1.86426 2.32365 2.0229 2.60833 2.30529C2.89302 2.58768 3.05295 2.97068 3.05295 3.37006V5.62848H6.84853C7.25117 5.62848 7.63733 5.78714 7.92203 6.06956C8.20673 6.35198 8.36669 6.73501 8.36669 7.13441C8.36669 7.53381 8.20673 7.91685 7.92203 8.19926C7.63733 8.48168 7.25117 8.64034 6.84853 8.64034H3.05322V9.39912C3.05322 9.99662 3.2925 10.5696 3.71841 10.9921C4.14433 11.4145 4.72199 11.6519 5.32434 11.6519H7.60754C8.01018 11.6519 8.39633 11.8106 8.68104 12.093C8.96575 12.3754 9.12571 12.7585 9.12571 13.1579C9.12571 13.5572 8.96575 13.9403 8.68104 14.2227C8.39633 14.5051 8.01018 14.6638 7.60754 14.6638H5.30259V14.6641Z" fill="#3FA6DA"/>
<path d="M35.2846 14.6637C32.3565 14.6637 29.9998 12.3089 29.9998 9.40379V3.36943C29.9998 2.97011 30.1596 2.58713 30.4443 2.30477C30.729 2.0224 31.115 1.86377 31.5176 1.86377C31.9202 1.86377 32.3063 2.0224 32.5909 2.30477C32.8756 2.58713 33.0355 2.97011 33.0355 3.36943V5.62786H35.312C35.5131 5.62521 35.7127 5.6622 35.8992 5.73669C36.0857 5.81118 36.2555 5.92168 36.3986 6.06179C36.5417 6.20189 36.6554 6.3688 36.733 6.55282C36.8106 6.73685 36.8504 6.93433 36.8504 7.1338C36.8504 7.33326 36.8106 7.53074 36.733 7.71476C36.6554 7.89879 36.5417 8.0657 36.3986 8.2058C36.2555 8.3459 36.0857 8.45641 35.8992 8.53089C35.7127 8.60538 35.5131 8.64237 35.312 8.63972H33.0355V9.3985C33.0355 9.69433 33.0942 9.98721 33.2083 10.2605C33.3223 10.5339 33.4896 10.7821 33.7004 10.9913C33.9113 11.2005 34.1616 11.3666 34.4371 11.4798C34.7126 11.593 35.0079 11.6513 35.3061 11.6514H36.0718C36.9098 11.6514 37.5893 12.3256 37.5893 13.1574C37.5893 13.9891 36.9098 14.6632 36.0718 14.6632L35.2846 14.6637Z" fill="#3FA6DA"/>
<path d="M43.2546 14.6641C40.326 14.6641 37.9692 12.3093 37.9692 9.40419V3.36983C37.9767 2.97537 38.1399 2.59958 38.4237 2.32323C38.7077 2.0469 39.0895 1.89209 39.4872 1.89209C39.885 1.89209 40.2668 2.0469 40.5506 2.32323C40.8345 2.59958 40.9977 2.97537 41.0052 3.36983V5.62826H43.2817C43.4828 5.62561 43.6824 5.6626 43.869 5.73709C44.0554 5.81158 44.2252 5.92208 44.3683 6.06218C44.5115 6.20229 44.6251 6.3692 44.7027 6.55322C44.7802 6.73724 44.8202 6.93472 44.8202 7.13419C44.8202 7.33365 44.7802 7.53113 44.7027 7.71516C44.6251 7.89919 44.5115 8.0661 44.3683 8.20619C44.2252 8.3463 44.0554 8.4568 43.869 8.53129C43.6824 8.60578 43.4828 8.64277 43.2817 8.64012H41.0052V9.39889C41.0052 9.69473 41.0639 9.9877 41.1781 10.261C41.2922 10.5343 41.4594 10.7826 41.6703 10.9918C41.8811 11.2011 42.1315 11.367 42.407 11.4802C42.6825 11.5935 42.9779 11.6518 43.2761 11.6518H44.0421C44.4412 11.657 44.8222 11.818 45.1026 12.0998C45.3829 12.3817 45.5402 12.7616 45.5402 13.1577C45.5402 13.5536 45.3829 13.9337 45.1026 14.2155C44.8222 14.4974 44.4412 14.6583 44.0421 14.6636L43.2546 14.6641Z" fill="#3FA6DA"/>
<path d="M56.1958 10.1461C56.1958 7.65088 58.211 5.62842 60.7262 5.62842H63.003C63.4022 5.63368 63.7831 5.79465 64.0635 6.07651C64.3439 6.35835 64.5011 6.73838 64.5011 7.13434C64.5011 7.53031 64.3439 7.91034 64.0635 8.19219C63.7831 8.47403 63.4022 8.63501 63.003 8.64027H60.7262C60.5268 8.6402 60.3293 8.6791 60.1451 8.75474C59.9608 8.83038 59.7935 8.94128 59.6524 9.08115C59.5113 9.2209 59.3995 9.38694 59.3231 9.56966C59.2467 9.75239 59.2075 9.9483 59.2074 10.1461L59.2323 13.1579C59.2323 13.3557 59.193 13.5516 59.1167 13.7343C59.0403 13.9171 58.9284 14.0831 58.7874 14.2229C58.6464 14.3627 58.4789 14.4737 58.2947 14.5493C58.1104 14.6249 57.913 14.6638 57.7136 14.6637C57.5143 14.6637 57.3169 14.6247 57.1327 14.549C56.9486 14.4733 56.7814 14.3624 56.6405 14.2226C56.4996 14.0827 56.3879 13.9167 56.3116 13.7341C56.2354 13.5514 56.1963 13.3556 56.1963 13.1579L56.1958 10.1461Z" fill="#3FA6DA"/>
<path d="M23.1686 5.62865C22.9692 5.62868 22.7719 5.66767 22.5876 5.74337C22.4035 5.81908 22.2361 5.93002 22.0953 6.06987C21.9543 6.20973 21.8425 6.37574 21.7663 6.55844C21.69 6.74115 21.6508 6.93697 21.6508 7.13471V10.1466C21.6508 10.5459 21.4908 10.929 21.2062 11.2114C20.9215 11.4938 20.5353 11.6525 20.1327 11.6525C19.7301 11.6525 19.3438 11.4938 19.0592 11.2114C18.7745 10.929 18.6145 10.5459 18.6145 10.1466V7.13471C18.6171 6.9353 18.5799 6.73734 18.5048 6.55234C18.4298 6.36734 18.3184 6.19898 18.1771 6.05703C18.036 5.91507 17.8677 5.80236 17.6822 5.72544C17.4967 5.64851 17.2977 5.60889 17.0967 5.60889C16.8955 5.60889 16.6965 5.64851 16.511 5.72544C16.3256 5.80236 16.1574 5.91507 16.0161 6.05703C15.8749 6.19898 15.7635 6.36734 15.6884 6.55234C15.6133 6.73734 15.5761 6.9353 15.5787 7.13471V10.1466C15.5787 10.5459 15.4188 10.929 15.1342 11.2114C14.8495 11.4937 14.4633 11.6523 14.0607 11.6523C13.6582 11.6523 13.272 11.4937 12.9873 11.2114C12.7027 10.929 12.5427 10.5459 12.5427 10.1466V7.13471C12.5454 6.9353 12.5081 6.73734 12.433 6.55234C12.358 6.36734 12.2465 6.19898 12.1053 6.05703C11.9641 5.91507 11.7959 5.80236 11.6104 5.72544C11.4249 5.64851 11.2259 5.60889 11.0248 5.60889C10.8238 5.60889 10.6248 5.64851 10.4392 5.72544C10.2537 5.80236 10.0855 5.91507 9.94429 6.05703C9.80313 6.19898 9.69172 6.36734 9.61667 6.55234C9.54152 6.73734 9.50426 6.9353 9.50697 7.13471V10.1466C9.50697 12.6417 11.5458 14.6643 14.0613 14.6643C15.2297 14.6643 16.2916 14.2243 17.0978 13.507C17.9038 14.224 18.9659 14.6643 20.1341 14.6643C22.6496 14.6643 24.6882 12.6417 24.6882 10.1466V7.13471C24.6876 6.73522 24.5273 6.35227 24.2424 6.06992C23.9575 5.78755 23.5713 5.62885 23.1686 5.62865Z" fill="#3FA6DA"/>
<path d="M27.343 5.62842C27.1437 5.62842 26.9463 5.66738 26.7623 5.74307C26.5781 5.81876 26.4108 5.92971 26.2699 6.06956C26.129 6.20942 26.0172 6.37545 25.941 6.55817C25.8648 6.74089 25.8256 6.93673 25.8257 7.13448V13.1579C25.8257 13.9896 26.5045 14.6637 27.343 14.6637C28.1815 14.6637 28.8606 13.9896 28.8606 13.1579V7.13448C28.8606 6.9367 28.8214 6.74085 28.7451 6.55811C28.6689 6.37537 28.5572 6.20933 28.4163 6.06946C28.2753 5.92961 28.108 5.81867 27.9238 5.74299C27.7397 5.66731 27.5423 5.62838 27.343 5.62842Z" fill="#3FA6DA"/>
<path d="M27.3428 4.87536C28.1809 4.87536 28.8604 4.2012 28.8604 3.36957C28.8604 2.53794 28.1809 1.86377 27.3428 1.86377C26.5047 1.86377 25.8252 2.53794 25.8252 3.36957C25.8252 4.2012 26.5047 4.87536 27.3428 4.87536Z" fill="#3FA6DA"/>
<path d="M73.9565 5.81833C74.701 3.51196 75.612 2.01736 76.6599 0.933948C77.4414 0.125385 77.8447 -0.131351 77.3854 0.758971C77.588 0.597578 77.8798 0.383454 78.1062 0.268934C79.374 -0.32417 79.2838 0.173324 78.4107 0.706239C80.7948 -0.139607 80.7118 0.93767 78.1913 1.47405C80.2519 1.51267 82.4438 2.81366 83.0742 5.58077C83.1618 5.96374 83.0576 5.92752 83.4529 5.99677C84.3066 6.14671 85.1092 6.13766 85.8917 5.89104C85.8075 6.46363 85.045 6.83569 83.8558 7.08124C83.4144 7.17232 83.3245 7.14836 83.8529 7.26634C84.5034 7.41149 85.2308 7.44904 86 7.41335C85.4012 8.09727 84.4451 8.44722 83.2644 8.4616C82.5255 11.1384 80.8367 13.0549 78.7004 14.2581C73.6826 17.083 66.3783 16.6732 62.7156 11.539C65.1196 13.4099 68.68 13.8222 71.324 11.2146C69.5914 11.2146 69.1425 9.92796 70.5164 9.23313C69.2156 9.21986 68.3894 8.81181 67.9043 8.07277C67.7199 7.79233 67.7182 7.77075 68.0187 7.55557C68.3486 7.31854 68.7981 7.21334 69.2644 7.17818C67.918 6.79575 67.0956 6.09824 66.81 5.16264C66.7157 4.8529 66.7009 4.86862 67.018 4.78899C67.3289 4.71096 67.7285 4.66941 68.0863 4.65157C67.029 4.01558 66.3972 3.23632 66.2365 2.37423C66.0843 1.56034 66.2415 1.7694 66.855 2.00244C69.5995 3.04297 72.3367 4.16153 73.9565 5.81833Z" fill="#3FA6DA"/>
<path d="M55.0481 9.39336C55.0481 9.91964 54.8256 10.8947 54.0338 10.8947L49.0222 10.8944C49.1056 11.2187 49.2954 11.5062 49.5618 11.7116C49.8281 11.9169 50.1559 12.0285 50.4933 12.0287H53.7283C53.9027 12.0286 54.0754 12.0627 54.2367 12.1289C54.3978 12.1951 54.5443 12.2922 54.6677 12.4146C54.791 12.537 54.8889 12.6822 54.9557 12.8421C55.0224 13.002 55.0568 13.1734 55.0567 13.3464C55.0568 13.5196 55.0224 13.6909 54.9557 13.8508C54.8889 14.0107 54.791 14.156 54.6677 14.2783C54.5443 14.4007 54.3978 14.4978 54.2367 14.564C54.0754 14.6302 53.9027 14.6642 53.7283 14.6642H50.4933C47.9784 14.6642 45.9392 12.6263 45.9392 9.77002C45.9392 7.26387 47.9791 5.62891 50.4952 5.62891C53.0103 5.62891 55.05 7.31448 55.05 9.39363L55.0481 9.39336ZM52.0129 9.01679C52.0129 8.32384 51.3342 7.7619 50.4954 7.7619C49.6567 7.7619 48.9771 8.32384 48.9771 9.01679H52.0129Z" fill="#3FA6DA"/>
</svg>
