<svg width="90" height="16" viewBox="0 0 90 16" fill="none" xmlns="http://www.w3.org/2000/svg">
<path fill-rule="evenodd" clip-rule="evenodd" d="M3.26871 0H13.4189C15.213 0 16.6876 1.41384 16.6876 3.13402V12.866C16.6876 14.5862 15.213 16 13.4189 16H3.26871C1.4746 16 0 14.5862 0 12.866V3.13402C0 1.41384 1.4746 0 3.26871 0ZM12.6079 9.80265C12.6079 9.18999 12.4358 8.7187 12.0918 8.36524C11.7477 8.01178 11.2807 7.77614 10.7155 7.65832V7.61119C11.1087 7.44624 11.4282 7.2106 11.6494 6.85714C11.8706 6.52725 11.9934 6.12666 11.9934 5.7025C11.9934 5.32548 11.9197 4.99558 11.7477 4.71281C11.5756 4.43004 11.3299 4.1944 11.0104 4.02946C10.6909 3.86451 10.3714 3.77025 10.0273 3.72312C9.68323 3.67599 9.16712 3.65243 8.47897 3.65243H5.13654V12.5832H8.8722C9.5112 12.5832 10.0519 12.5361 10.4697 12.4183C10.8875 12.3004 11.2807 12.1119 11.6248 11.8527C11.9197 11.6406 12.1655 11.3579 12.3375 11.028C12.5096 10.651 12.6079 10.2504 12.6079 9.80265ZM9.6095 6.15022C9.6095 6.00884 9.56035 5.86745 9.48662 5.7025C9.41289 5.56112 9.29 5.4433 9.11797 5.37261C8.97051 5.30191 8.77389 5.27835 8.57728 5.25479C8.35609 5.25479 8.06117 5.25479 7.64336 5.25479H7.47133V7.13991H7.76625C8.15948 7.13991 8.4544 7.13991 8.60186 7.11635C8.77389 7.11635 8.92135 7.06922 9.09339 6.99853C9.29001 6.90427 9.41289 6.78645 9.48662 6.64507C9.56035 6.50368 9.6095 6.33873 9.6095 6.15022ZM10.1993 9.77909C10.1993 9.49632 10.1502 9.28424 10.0273 9.14286C9.90442 8.97791 9.73239 8.86009 9.5112 8.7894C9.36374 8.74227 9.16712 8.7187 8.92135 8.69514C8.67559 8.69514 8.33151 8.69514 7.91371 8.69514H7.47133V10.9337H7.59421C8.20863 10.9337 8.62643 10.9337 8.84762 10.9102C9.06882 10.9102 9.31458 10.8395 9.56035 10.7452C9.78154 10.651 9.929 10.5331 10.0273 10.3682C10.1502 10.1797 10.1993 9.99116 10.1993 9.77909Z" fill="#4D76A0"/>
<path d="M28.2633 12.1345H25.2895L23.3234 8.97692H22.6598V12.1345H20.0547V4.16985H22.6352V7.37456C23.0039 7.37456 23.2742 7.32743 23.4463 7.23318C23.6183 7.13892 23.8149 6.87972 24.0361 6.45556C24.1099 6.31418 24.1836 6.14923 24.2573 5.98428C24.331 5.81933 24.4048 5.65439 24.4785 5.53656C24.7488 5.01816 25.0683 4.66469 25.437 4.45262C25.8302 4.26411 26.2726 4.16985 26.8379 4.16985C27.0345 4.16985 27.2065 4.16985 27.3786 4.16985C27.5506 4.16985 27.6735 4.16985 27.7472 4.16985V6.29062H27.2557C27.1082 6.29062 26.9608 6.31418 26.8379 6.38487C26.715 6.432 26.5921 6.52626 26.5184 6.59695C26.4201 6.6912 26.3463 6.78546 26.2972 6.87972C26.248 6.97397 26.1989 7.06823 26.1497 7.16249C26.0268 7.42169 25.9531 7.6102 25.904 7.70446C25.8548 7.82228 25.7565 7.91654 25.609 8.01079L28.2633 12.1345ZM37.1601 8.15218C37.1601 9.47176 36.7914 10.485 36.0296 11.2391C35.2923 11.9931 34.2355 12.3701 32.8592 12.3701C31.5074 12.3701 30.4506 11.9931 29.6888 11.2391C28.9269 10.485 28.5582 9.4482 28.5582 8.15218C28.5582 6.83259 28.9269 5.79577 29.6888 5.04172C30.4506 4.28767 31.4829 3.91064 32.8592 3.91064C34.2109 3.91064 35.2677 4.28767 36.0296 5.04172C36.7914 5.79577 37.1601 6.83259 37.1601 8.15218ZM34.5058 8.15218C34.5058 7.68089 34.4567 7.28031 34.3829 6.97397C34.3092 6.66764 34.1863 6.40844 34.0389 6.21992C33.8914 6.03141 33.7194 5.89003 33.5227 5.79577C33.3261 5.72508 33.1049 5.67795 32.8592 5.67795C32.638 5.67795 32.4168 5.70151 32.2202 5.77221C32.0236 5.8429 31.8515 5.96072 31.7041 6.17279C31.5566 6.36131 31.4337 6.62051 31.36 6.92684C31.2617 7.25674 31.2371 7.65733 31.2371 8.12861C31.2371 8.62346 31.2863 9.00048 31.36 9.30682C31.4337 9.61315 31.5566 9.84879 31.6795 10.0373C31.8269 10.2258 31.999 10.3672 32.1956 10.4379C32.3922 10.5321 32.638 10.5557 32.8837 10.5557C33.0804 10.5557 33.3015 10.5086 33.5227 10.4379C33.7439 10.3436 33.916 10.2258 34.0389 10.0609C34.1863 9.84879 34.3092 9.61315 34.3829 9.33038C34.4812 9.07117 34.5058 8.67059 34.5058 8.15218ZM46.401 12.1345H43.8204V8.71771H41.1415V12.1345H38.561V4.16985H41.1415V6.92684H43.8204V4.16985H46.401V12.1345ZM55.1994 5.89003H52.6189V12.1109H50.0383V5.89003H47.4578V4.16985H55.1994V5.89003ZM60.8275 10.0373V8.38782C60.3851 8.43494 60.041 8.45851 59.7707 8.50564C59.5004 8.5292 59.23 8.59989 58.9597 8.69415C58.7385 8.76484 58.5664 8.88266 58.4436 9.04761C58.3207 9.21256 58.2469 9.40107 58.2469 9.66028C58.2469 10.0373 58.3452 10.2965 58.5664 10.4379C58.7876 10.5793 59.0826 10.65 59.5004 10.65C59.7215 10.65 59.9673 10.6028 60.1885 10.5086C60.4343 10.3672 60.6555 10.2258 60.8275 10.0373ZM60.8275 11.2862C60.6555 11.4276 60.4834 11.569 60.3605 11.6632C60.2131 11.781 60.041 11.8989 59.7953 11.9931C59.5741 12.1109 59.3283 12.1816 59.1071 12.2523C58.8859 12.2995 58.591 12.3466 58.1978 12.3466C57.4605 12.3466 56.8461 12.1109 56.3791 11.6397C55.8876 11.1684 55.6418 10.5793 55.6418 9.84879C55.6418 9.25969 55.7647 8.78841 56.0105 8.41138C56.2562 8.05792 56.6003 7.75159 57.0673 7.53951C57.5342 7.32743 58.0995 7.16249 58.7385 7.09179C59.3775 6.99754 60.0902 6.95041 60.8275 6.90328V6.85615C60.8275 6.40844 60.6555 6.1021 60.3114 5.93715C59.9673 5.77221 59.4758 5.67795 58.7876 5.67795C58.4927 5.67795 58.1241 5.72508 57.7063 5.8429C57.2884 5.96072 56.8952 6.07854 56.502 6.24349H56.2808V4.31123C56.5266 4.24054 56.9444 4.14629 57.5342 4.05203C58.0995 3.95777 58.6893 3.91064 59.2546 3.91064C60.68 3.91064 61.7368 4.14629 62.3758 4.594C63.0394 5.04172 63.3589 5.74864 63.3589 6.6912V12.1109H60.7783V11.2862H60.8275ZM73.5337 12.1345H70.5353L68.5692 8.97692H67.9056V12.1345H65.325V4.16985H67.9056V7.37456C68.2742 7.37456 68.5446 7.32743 68.7166 7.23318C68.8887 7.13892 69.0853 6.87972 69.3065 6.45556C69.3802 6.31418 69.4539 6.14923 69.5277 5.98428C69.6014 5.81933 69.6751 5.65439 69.7489 5.53656C70.0192 5.01816 70.3387 4.66469 70.7074 4.45262C71.1006 4.26411 71.543 4.16985 72.1082 4.16985C72.3048 4.16985 72.4769 4.16985 72.6489 4.16985C72.8209 4.16985 72.9438 4.16985 73.0176 4.16985V6.29062H72.526C72.3786 6.29062 72.2311 6.31418 72.1082 6.38487C71.9853 6.432 71.8625 6.52626 71.7887 6.59695C71.6904 6.6912 71.6167 6.78546 71.5675 6.87972C71.5184 6.97397 71.4692 7.06823 71.4201 7.16249C71.2972 7.42169 71.2235 7.6102 71.1743 7.70446C71.1252 7.82228 71.0268 7.91654 70.8794 8.01079L73.5337 12.1345ZM81.2753 5.89003H78.6948V12.1109H76.1142V5.89003H73.5337V4.16985H81.2753V5.89003ZM86.5839 12.3466C85.011 12.3466 83.8068 11.9931 82.9711 11.2626C82.1355 10.5321 81.7177 9.51889 81.7177 8.1993C81.7177 6.90328 82.111 5.86646 82.8974 5.08885C83.6839 4.31123 84.7652 3.93421 86.1661 3.93421C87.4441 3.93421 88.4026 4.26411 89.0416 4.9239C89.6806 5.58369 90.0001 6.52626 90.0001 7.75159V8.64702H84.3229C84.3474 9.02405 84.4212 9.33038 84.5686 9.56602C84.7161 9.82522 84.8881 10.0137 85.1093 10.1551C85.3305 10.2965 85.6009 10.4143 85.8958 10.4615C86.1907 10.5321 86.5102 10.5557 86.8543 10.5557C87.1492 10.5557 87.4441 10.5321 87.739 10.4615C88.034 10.3908 88.3043 10.3201 88.5255 10.2022C88.7467 10.108 88.9433 10.0137 89.1153 9.91948C89.2874 9.82522 89.4348 9.73097 89.5577 9.63671H89.828V11.6868C89.6069 11.7575 89.4102 11.8517 89.2382 11.8989C89.0662 11.9696 88.8204 12.0402 88.5255 12.1109C88.2551 12.1816 87.9602 12.2288 87.6653 12.2759C87.395 12.323 87.0263 12.3466 86.5839 12.3466ZM87.4441 7.11536C87.4195 6.59695 87.2966 6.19636 87.0509 5.91359C86.8051 5.63082 86.4365 5.513 85.9449 5.513C85.4288 5.513 85.0602 5.65439 84.7652 5.93715C84.4703 6.21992 84.3229 6.62051 84.2983 7.11536H87.4441Z" fill="#4D76A0"/>
</svg>
