<svg width="100" height="20" viewBox="0 0 100 20" fill="none" xmlns="http://www.w3.org/2000/svg">
<path d="M6.43916 1.44069H5.28982C4.93502 1.44069 4.59236 1.51325 4.26041 1.65908C3.92774 1.80491 3.6322 2.0374 3.3752 2.35794C3.11678 2.67849 2.91119 3.08921 2.75413 3.59221C2.59994 4.09381 2.52284 4.69404 2.52284 5.3929C2.52284 6.07626 2.6085 6.65606 2.77769 7.12877C2.94759 7.60219 3.17246 7.99178 3.45302 8.29823C3.73357 8.60328 4.05053 8.82519 4.40461 8.96327C4.75798 9.10206 5.12706 9.1711 5.51112 9.1711H6.43916V1.43999V1.44069ZM2.01313 16.8374H1.70201e-09L3.58508 10.3067C2.53783 9.81219 1.78897 9.15349 1.33923 8.33064C0.889489 7.50849 0.663904 6.52925 0.663904 5.3929C0.663904 4.51933 0.789547 3.74861 1.04012 3.07864C1.28997 2.40937 1.63049 1.84577 2.0581 1.38644C2.48643 0.927114 2.984 0.581912 3.55153 0.348724C4.12049 0.116241 4.72086 1.04978e-09 5.35621 1.04978e-09H8.18887V16.8374H6.43916V10.5914H5.28982L2.01313 16.8374Z" fill="#FF2C00"/>
<path fill-rule="evenodd" clip-rule="evenodd" d="M25.6923 19.0214H24.1218V16.8163H19.2317V19.0214H17.6598V15.396H18.3451C18.6999 14.7409 18.9761 14.035 19.176 13.2776C19.3759 12.5203 19.5258 11.7559 19.6293 10.9845C19.7329 10.2131 19.795 9.4487 19.8178 8.69137C19.8406 7.93404 19.8514 7.21334 19.8514 6.52857V5.56905H24.8085V15.3967H25.6937V19.0214H25.6923ZM33.35 16.3133C32.981 16.5176 32.5719 16.6951 32.1222 16.8487C31.6724 17.0016 31.1656 17.0777 30.6059 17.0777C29.4551 17.0777 28.5328 16.6056 27.8396 15.6588C27.1472 14.7127 26.7995 13.3805 26.7995 11.6622C26.7995 10.8323 26.8709 10.0348 27.0101 9.27117C27.1507 8.50538 27.3642 7.82907 27.6526 7.23941C27.9403 6.64904 28.3051 6.17562 28.7477 5.81985C29.1903 5.46338 29.7207 5.28444 30.3396 5.28444C31.2548 5.28444 31.993 5.73672 32.5526 6.63918C33.1137 7.54093 33.395 8.87383 33.395 10.6358V11.5967H28.6363C28.6363 12.8197 28.8462 13.7736 29.2667 14.4569C29.6878 15.1417 30.3475 15.4841 31.2477 15.4841C31.5868 15.4841 31.9373 15.4369 32.2985 15.3432C32.6604 15.2474 32.9446 15.1565 33.1509 15.0684L33.3507 16.314L33.35 16.3133ZM30.2732 6.68286C30.0234 6.68286 29.8021 6.76951 29.6093 6.94352C29.418 7.11964 29.256 7.36269 29.1239 7.67619C28.9904 7.98899 28.8869 8.35673 28.8134 8.77873C28.7398 9.20142 28.6877 9.65934 28.6584 10.1553H31.5796V9.91578C31.5796 9.84251 31.5761 9.7622 31.5689 9.67484C31.5618 9.58748 31.5575 9.49308 31.5575 9.39093C31.4982 8.53145 31.3576 7.865 31.1363 7.39158C30.915 6.91957 30.628 6.68215 30.2739 6.68215L30.2732 6.68286ZM23.0595 6.96606V15.396H19.8956C20.1897 14.9156 20.4332 14.3477 20.6252 13.6926C20.8179 13.0374 20.9721 12.3421 21.0892 11.6073C21.2077 10.8718 21.2891 10.1222 21.3334 9.35711C21.3776 8.59274 21.3998 7.86852 21.3998 7.18446V6.96606H23.0595ZM16.6418 5.56835V16.8163H14.8928V11.4431H12.2821V16.8156H10.5117V5.56764H12.2821V10.001H14.8935V5.56835H16.6425H16.6418ZM41.8045 16.8163H39.8342L37.1122 11.2684L36.9123 11.0289V16.8156H35.1419V5.56764H36.9123V10.678L37.1122 10.4596L39.5251 5.56764H41.4054L38.6177 10.6344L41.8045 16.8149V16.8163ZM44.0832 11.2247C44.0832 12.5492 44.2902 13.5904 44.7028 14.3477C45.1168 15.1051 45.7501 15.4834 46.606 15.4834C46.9308 15.4834 47.2628 15.4362 47.6018 15.3425C47.9416 15.2467 48.2158 15.1558 48.4214 15.0677L48.5984 16.3133C48.2593 16.5176 47.8795 16.6951 47.4591 16.8487C47.0379 17.0016 46.5624 17.0777 46.0313 17.0777C44.8963 17.0777 43.9768 16.6127 43.2758 15.6806C42.5762 14.7486 42.2249 13.4094 42.2249 11.6622C42.2249 10.7013 42.3249 9.82772 42.5248 9.0415C42.7232 8.25529 42.9923 7.58531 43.3314 7.03229C43.6705 6.47996 44.0767 6.05022 44.5486 5.74447C45.0198 5.43872 45.5295 5.28655 46.0763 5.28655C46.5617 5.28655 47.0015 5.35136 47.3927 5.4824C47.7832 5.61343 48.1337 5.78815 48.4435 6.00654L47.5355 7.51416C47.3284 7.28027 47.0964 7.08442 46.838 6.92379C46.581 6.76387 46.319 6.68427 46.0527 6.68427C45.7436 6.68427 45.4631 6.8146 45.2125 7.07667C44.9627 7.33874 44.7556 7.68112 44.5929 8.10312C44.4308 8.52581 44.3052 9.00909 44.2166 9.55578C44.1281 10.1018 44.0839 10.6583 44.0839 11.2254L44.0832 11.2247ZM56.2405 14.2033H57.1014L59.4643 5.53242C59.6399 4.87865 59.7948 4.24672 59.9926 3.37526H60.0818C60.0376 4.16006 59.9933 4.94417 59.9933 5.686V16.6007H61.0527V1.02155H59.8163L57.1242 10.9789C57.0129 11.3713 56.8358 12.199 56.748 12.7873H56.6816C56.6152 12.1997 56.4603 11.3938 56.3504 10.9796L53.6791 1.02155H52.3984V16.6H53.3692V5.68529C53.3692 4.89978 53.3478 4.11568 53.3036 3.37455H53.37C53.5027 4.09314 53.6798 4.79059 53.9004 5.59723L56.239 14.2026L56.2405 14.2033ZM65.7336 15.9906C66.7715 15.9906 67.5004 15.0114 67.8966 13.8335V10.8056H66.7044C64.8726 10.8056 63.9896 11.6333 63.9896 13.5503C63.9896 15.0973 64.6749 15.9906 65.7336 15.9906ZM68.2064 16.6007C68.1179 16.3175 68.008 15.9033 67.9423 15.1192C67.4119 16.1653 66.6166 16.8191 65.513 16.8191C64.0124 16.8191 62.9744 15.6426 62.9744 13.6376C62.9744 11.2846 64.2773 10.0644 66.6837 10.0644H67.8973V8.69207C67.8973 7.01397 67.2577 6.29468 66.0434 6.29468C65.0939 6.29468 64.233 6.73147 63.7033 7.49373L63.4163 6.51307C63.8575 5.94666 64.7848 5.40138 66.0434 5.40138C67.8759 5.40138 68.9132 6.40388 68.9132 8.58288V14.5746C68.9132 15.3369 69.0245 16.1879 69.1559 16.6007H68.2064ZM74.3886 15.9906C75.8021 15.9906 76.7287 14.3351 76.7287 10.8704C76.7287 7.99392 75.9341 6.29398 74.6535 6.29398C73.6597 6.29398 72.8209 7.34015 72.3355 8.51665V14.6598C72.7767 15.5545 73.3949 15.9892 74.3886 15.9892V15.9906ZM74.3222 16.7973C73.4841 16.7973 72.7553 16.383 72.3362 15.8392V19.9999H71.2982V5.61907H72.2034L72.292 7.42751C72.7774 6.38133 73.5948 5.40068 74.8305 5.40068C76.6851 5.40068 77.7674 7.60152 77.7674 10.783C77.7674 14.8127 76.3982 16.7966 74.3229 16.7966L74.3222 16.7973ZM80.7921 10.9148L84.6556 16.6H85.8049L81.8736 10.7175L85.5386 5.61978H84.5235L80.7921 10.7837V5.61978H79.7541V16.6007H80.7914V10.9126L80.7921 10.9148ZM92.3169 14.7486L92.6481 15.5771C92.6481 15.5771 91.81 16.8191 90.0439 16.8191C87.681 16.8191 86.5994 14.7056 86.5994 11.1099C86.5994 7.51416 87.9679 5.40068 89.8447 5.40068C91.765 5.40068 93.0022 7.38383 92.6488 11.2832H87.616C87.6588 14.2914 88.4548 15.9258 90.0667 15.9258C91.5445 15.9258 92.3176 14.7493 92.3183 14.7479L92.3169 14.7486ZM89.844 6.25241C88.6733 6.25241 87.7238 7.73326 87.6367 10.4794H91.6772C91.8543 7.55854 90.9705 6.25241 89.8447 6.25241H89.844ZM100 6.4694V5.61907H93.8182V6.46869H96.4024V16.5993H97.4389V6.4694H100Z" fill="#190E08"/>
</svg>
