<svg width="100" height="20" viewBox="0 0 100 20" fill="none" xmlns="http://www.w3.org/2000/svg">
<g id="yandex-direct">
<path id="ya" fill-rule="evenodd" clip-rule="evenodd" d="M6.35719 9.24991H5.39265C3.902 9.24991 2.45519 8.14873 2.45519 5.4178C2.45519 2.59878 3.81431 1.40951 5.17344 1.40951H6.31335V9.24991H6.35719ZM7.84784 0H5.21728C2.71825 0 0.613798 1.93808 0.613798 5.68209C0.613798 7.92849 1.66602 9.60229 3.50742 10.3951L0.0438427 16.6939C0 16.7379 0 16.782 0 16.826C0 16.9582 0.0876854 17.0463 0.219213 17.0463H1.79755C1.92908 17.0463 2.01676 17.0022 2.06061 16.8701L5.17344 10.7035H6.31335V16.8701C6.31335 16.9582 6.40103 17.0463 6.48872 17.0463H7.89168C8.02321 17.0463 8.06705 16.9582 8.06705 16.8701V0.220236C8.1109 0.0880944 8.02321 0 7.84784 0Z" fill="#FF2C00"/>
<g id="ndex">
<path d="M47.8362 15.9675L47.6608 15.175C47.6608 15.0871 47.6169 15.0871 47.5292 15.0871C47.4931 15.0871 47.4241 15.1067 47.3239 15.136C47.0588 15.2118 46.5753 15.3508 45.9071 15.3508C44.1971 15.3508 43.3642 13.6771 43.3642 11.0787C43.3642 8.74399 44.0657 6.45358 45.2494 6.45358C45.5564 6.45358 45.9509 6.54147 46.5647 7.11463C46.6524 7.20252 46.6962 7.20252 46.7401 7.20252C46.8278 7.20252 46.8716 7.1582 46.9593 7.02599L47.573 6.01337C47.5826 5.99384 47.5923 5.97656 47.6015 5.96079L47.6078 5.94952C47.6375 5.89769 47.6608 5.85712 47.6608 5.79252C47.6608 5.70463 47.573 5.61674 47.4416 5.57242C46.5208 5.08789 45.9071 5 45.3371 5C43.2326 5 41.5666 7.55484 41.5666 11.5189C41.5666 14.9549 43.145 16.9366 45.3809 16.9366C46.3455 16.9366 47.3539 16.4964 47.7485 16.1877C47.7923 16.1441 47.8362 16.0998 47.8362 16.0119V15.9675Z" fill="#190E08"/>
<path d="M15.9187 5.30874H14.5158C14.3843 5.30874 14.3404 5.39663 14.3404 5.48528V9.80168H11.7537V5.48528C11.7537 5.35306 11.7098 5.30874 11.5784 5.30874H10.1754C10.0439 5.30874 10 5.39663 10 5.48528V16.5407C10 16.6729 10.0439 16.7172 10.1754 16.7172H11.5784C11.666 16.7172 11.7537 16.6286 11.7537 16.5407V11.2553H14.3404V16.5407C14.3404 16.6729 14.4281 16.7172 14.5158 16.7172H15.9187C16.0503 16.7172 16.0941 16.6286 16.0941 16.5407V5.48528C16.0941 5.39663 16.0064 5.30874 15.9187 5.30874Z" fill="#190E08"/>
<path d="M40.7335 5.48528L38.0153 10.462L41.2158 16.5407C41.2597 16.6286 41.2158 16.7172 41.1281 16.7172H39.6813C39.4183 16.7172 39.199 16.6286 39.0676 16.3649L36.4808 11.0787C36.437 10.9908 36.3931 10.9029 36.3054 10.8586V16.5407C36.3054 16.6286 36.2615 16.7172 36.1739 16.7172H34.7271C34.6394 16.7172 34.5956 16.6286 34.5956 16.5407V5.48528C34.5956 5.39663 34.6394 5.30874 34.7271 5.30874H36.1739C36.2615 5.30874 36.3054 5.39663 36.3054 5.48528V10.462C36.437 10.3741 36.5247 10.2419 36.6562 9.97746L38.6729 5.74895C38.8045 5.44096 38.936 5.30874 39.3306 5.30874H40.6458C40.7774 5.30874 40.7774 5.39663 40.7335 5.48528Z" fill="#190E08"/>
<path fill-rule="evenodd" clip-rule="evenodd" d="M25.1257 15.2637H24.8626C24.5119 15.2637 24.4242 15.1315 24.4242 14.867V5.48528C24.4242 5.35306 24.3804 5.30874 24.2926 5.30874H19.7769C19.6453 5.30874 19.6015 5.39663 19.6015 5.48528V6.27779C19.6015 9.00841 19.4262 12.5766 18.0232 15.2637H17.5409C17.4094 15.2637 17.3655 15.3516 17.3655 15.4395V18.7432C17.3655 18.8755 17.4532 18.919 17.5409 18.919H18.6369C18.9001 18.919 18.9878 18.7432 18.9878 18.5667V16.6729H23.8104V18.7432C23.8104 18.8311 23.8981 18.919 23.9858 18.919H25.038C25.1695 18.919 25.301 18.7876 25.301 18.5667V15.4395C25.301 15.3516 25.2133 15.2637 25.1257 15.2637ZM22.6705 15.2637H19.3823C20.5222 13.2812 20.9606 11.0787 21.136 8.34811C21.1799 7.77569 21.2237 7.15895 21.2237 6.76232H22.6705V15.2637Z" fill="#190E08"/>
<path fill-rule="evenodd" clip-rule="evenodd" d="M26.2217 11.4761C26.2217 8.128 27.274 5.04507 29.7292 5.04507C31.5267 5.04507 32.7543 6.93885 32.7981 10.3748V11.3439H29.5099C28.9838 11.3439 28.107 11.256 28.107 11.256V11.7841C28.107 13.7665 28.8961 15.308 30.6499 15.308C31.3535 15.308 31.9034 15.1532 32.1627 15.0811C32.2428 15.0586 32.2952 15.0436 32.3159 15.0436C32.4036 15.0436 32.4474 15.0879 32.4913 15.1758L32.6666 15.9691C32.7104 16.0569 32.6666 16.1448 32.579 16.1892C32.0528 16.4971 31.0883 16.9381 29.9922 16.9381C27.7563 16.9381 26.2217 14.9114 26.2217 11.4761ZM28.1508 10.0661C28.1508 10.0661 28.94 9.97822 29.4661 9.97822H30.9567C30.9567 9.97822 30.9567 9.53801 30.9129 9.1857C30.8252 7.4677 30.3429 6.45433 29.6415 6.45433C28.8523 6.45433 28.4138 7.42338 28.1947 9.36148C28.1508 9.71379 28.1508 10.0661 28.1508 10.0661Z" fill="#190E08"/>
</g>
<g id="direct">
<path fill-rule="evenodd" clip-rule="evenodd" d="M60.4141 20V16.099H52.5429V20H51.7734V15.0894H52.6661C54.2395 14.1279 54.2384 9.07151 54.2372 3.753C54.2369 2.5 54.2366 1.23197 54.2569 0H59.6061V15.0894H61.1529V20H60.4141ZM58.8519 1.02163H54.9649L54.9619 1.84946C54.9352 9.26457 54.9183 13.9438 53.6481 15.0894H58.8519V1.02163Z" fill="#190E08"/>
<path fill-rule="evenodd" clip-rule="evenodd" d="M80.9234 14.3863C80.4235 13.5299 80.1736 12.3438 80.1736 10.8263H86.0324V10.3839C86.0324 8.41722 85.6074 4.99023 82.9793 4.99023C80.2378 4.99023 79.4316 8.58474 79.4316 10.7181C79.4316 12.5811 79.7458 14.0227 80.3745 15.0443C81.6097 17.0508 84.0271 16.9088 85.5918 15.3568V14.2999C84.2741 15.7242 82.0787 16.3439 80.9234 14.3863ZM82.9484 5.89618C84.9005 5.89618 85.2548 8.45628 85.2904 9.92037H80.2045C80.3427 8.3421 80.9432 5.89618 82.9484 5.89618Z" fill="#190E08"/>
<path d="M67.8841 7.07257V16.3063H68.6029V5.25992H68.0309L63.1229 14.4073V5.25992H62.4118V16.3063H62.9141L67.8841 7.07257Z" fill="#190E08"/>
<path d="M97.6276 6.16587V16.3063H96.9164V6.16587H94.5436V5.25992H100V6.16587H97.6276Z" fill="#190E08"/>
<path d="M92.4554 16.3063L88.8469 11.0502H88.7067V16.3063H87.9956V5.25992H88.7067V10.3373H88.8751L92.409 5.25992H93.3288L89.4951 10.6535L93.4525 16.3063H92.4554Z" fill="#190E08"/>
<path fill-rule="evenodd" clip-rule="evenodd" d="M71.8415 20V14.3427C72.4083 15.8316 73.3152 16.576 74.5004 16.576C77.4213 16.576 78.0326 12.5639 78.0326 10.3839C78.0326 8.35562 77.4875 4.99023 74.8327 4.99023C73.3625 4.99023 72.2918 6.24399 71.8415 7.53606V5.25916H71.1304V20H71.8415ZM71.8415 11.6241V10.2329C71.8415 8.46304 72.5702 5.89693 74.7399 5.89693C76.8841 5.89693 77.2906 8.81235 77.2906 10.4056C77.2906 12.0808 76.9211 15.6701 74.5622 15.6701C72.5634 15.6701 71.8415 13.2505 71.8415 11.6241Z" fill="#190E08"/>
</g>
</g>
</svg>
